<svg width="800" height="600" xmlns="http://www.w3.org/2000/svg" xmlns:xlink="http://www.w3.org/1999/xlink">
 <defs>
  <linearGradient id="svg_17">
   <stop stop-opacity="0.49804" stop-color="#b8b8b8" id="svg_43" offset="0"/>
   <stop stop-opacity="0" stop-color="#7f7f7f" id="svg_42" offset="1"/>
  </linearGradient>
  <linearGradient id="svg_19">
   <stop stop-color="#ffd43b" id="svg_32" offset="0"/>
   <stop stop-color="#ffe873" id="svg_31" offset="1"/>
  </linearGradient>
  <linearGradient id="svg_18">
   <stop stop-color="#5a9fd4" id="svg_30" offset="0"/>
   <stop stop-color="#306998" id="svg_29" offset="1"/>
  </linearGradient>
  <linearGradient xlink:href="#svg_19" gradientTransform="matrix(0.5625410079956055,0,0,0.5679720044136047,16.608596801757812,222.53128051757812)" gradientUnits="userSpaceOnUse" xlink:href="#svg_19" id="svg_7" y2="137.27299" x2="112.03144" y1="192.35176" x1="150.96111"/>
  <linearGradient href="#svg_18" gradientTransform="matrix(0.5625410079956055,0,0,0.5679720044136047,16.608596801757812,222.53128051757812)" gradientUnits="userSpaceOnUse" xlink:href="#svg_18" id="svg_9" y2="114.39767" x2="135.66525" y1="20.60378" x1="26.64894"/>
  <radialGradient href="#svg_17" gradientTransform="matrix(6.918287276391766e-9,-0.12729302048683167,0.417167603969574,2.0114330823162163e-7,-5.520812034606934,298.6039276123047)" gradientUnits="userSpaceOnUse" xlink:href="#svg_17" id="svg_4" fy="132.28575" fx="61.51888" r="29.03691" cy="132.28575" cx="61.51888"/>
 </defs>
 <g>
  <title>Layer 1</title>
  <g>
   <metadata id="svg_44">image/svg+xml</metadata>

   <g id="svg_2">
    <path fill="#646464" d="m210.62179,289.76595c0,-14.56215 -4.15226,-22.03817 -12.45678,-22.44755c-3.30427,-0.15595 -6.53055,0.37039 -9.66912,1.58878c-2.505,0.89673 -4.19124,1.78372 -5.07823,2.68045l0,34.75812c5.31216,3.33351 10.02976,4.88329 14.14303,4.63962c8.70415,-0.57508 13.0611,-7.64172 13.0611,-21.21942zm10.24419,0.60432c0,7.39804 -1.73498,13.53871 -5.22444,18.422c-3.88909,5.5266 -9.27923,8.37275 -16.17042,8.52871c-5.1952,0.1657 -10.54635,-1.46207 -16.05346,-4.87355l0,31.59032l-8.90884,-3.17755l0,-70.12057c1.46206,-1.79346 3.34325,-3.3335 5.62407,-4.63961c5.30242,-3.08983 11.74524,-4.67861 19.32848,-4.75658l0.12671,0.12671c6.93018,-0.08773 12.27159,2.75843 16.02422,8.5287c3.4992,5.29267 5.25368,12.07665 5.25368,20.37142z" id="svg_15"/>
    <path fill="#646464" d="m275.31322,311.10233c0,9.92254 -0.9942,16.79424 -2.9826,20.6151c-1.99816,3.82086 -5.79952,6.8717 -11.41385,9.14277c-4.55189,1.79346 -9.47417,2.76817 -14.75709,2.93387l-1.47181,-5.61432c5.37064,-0.73103 9.15252,-1.46207 11.34561,-2.1931c4.31796,-1.46206 7.28108,-3.70389 8.90884,-6.706c1.30611,-2.44652 1.94942,-7.11537 1.94942,-14.02606l0,-2.3198c-6.09193,2.76817 -12.47628,4.14251 -19.15303,4.14251c-4.38619,0 -8.25579,-1.37434 -11.58929,-4.14251c-3.74289,-3.01186 -5.61433,-6.83272 -5.61433,-11.46258l0,-37.07793l8.90884,-3.05084l0,37.3216c0,3.98656 1.28662,7.0569 3.85985,9.21101c2.57323,2.1541 5.90674,3.18729 9.99077,3.10932c4.08403,-0.08773 8.46047,-1.66676 13.10983,-4.75658l0,-43.54025l8.90884,0l0,48.41379z" id="svg_14"/>
    <path fill="#646464" d="m310.09084,316.83362c-1.06243,0.08772 -2.03714,0.12671 -2.93387,0.12671c-5.03925,0 -8.96733,-1.19889 -11.77449,-3.60642c-2.79742,-2.40753 -4.20099,-5.73129 -4.20099,-9.97127l0,-35.08953l-6.10168,0l0,-5.60457l6.10168,0l0,-14.88381l8.89909,-3.16781l0,18.05162l10.01026,0l0,5.60457l-10.01026,0l0,34.84585c0,3.34325 0.89673,5.71179 2.6902,7.09588c1.54004,1.14041 3.98656,1.79347 7.32006,1.95917l0,4.63961z" id="svg_13"/>
    <path fill="#646464" d="m364.03123,316.10259l-8.90884,0l0,-34.38773c0,-3.49921 -0.81876,-6.51106 -2.44651,-9.02581c-1.88119,-2.84615 -4.49342,-4.26923 -7.84641,-4.26923c-4.08404,0 -9.19152,2.15411 -15.32242,6.46233l0,41.22044l-8.90885,0l0,-82.19721l8.90885,-2.80716l0,37.43857c5.6923,-4.14251 11.91093,-6.21864 18.66566,-6.21864c4.7176,0 8.53846,1.58877 11.46258,4.75658c2.93388,3.1678 4.39594,7.11537 4.39594,11.83296l0,37.1949l0,0z" id="svg_12"/>
    <path fill="#646464" d="m411.38259,288.36237c0,-5.59483 -1.06242,-10.21495 -3.17755,-13.87011c-2.51474,-4.45442 -6.42332,-6.80347 -11.70625,-7.04715c-9.76658,0.56534 -14.64012,7.56375 -14.64012,20.97574c0,6.15042 1.01369,11.28713 3.06057,15.41015c2.61223,5.25368 6.53056,7.84641 11.755,7.75869c9.80557,-0.07798 14.70835,-7.81717 14.70835,-23.22732zm9.75685,0.05848c0,7.96338 -2.03714,14.5914 -6.10168,19.88407c-4.47391,5.92623 -10.65357,8.89909 -18.53897,8.89909c-7.81716,0 -13.90909,-2.97286 -18.30503,-8.89909c-3.98656,-5.29267 -5.97497,-11.92069 -5.97497,-19.88407c0,-7.48576 2.15411,-13.78238 6.46232,-18.90935c4.5519,-5.43888 10.53661,-8.16806 17.93464,-8.16806c7.39805,0 13.42174,2.72918 18.06137,8.16806c4.3082,5.12697 6.46232,11.42359 6.46232,18.90935z" id="svg_11"/>
    <path fill="#646464" d="m472.21418,316.10259l-8.90884,0l0,-36.33715c0,-3.98656 -1.19889,-7.09588 -3.59667,-9.33772c-2.39779,-2.23208 -5.59483,-3.31401 -9.58139,-3.22628c-4.23023,0.07798 -8.25579,1.46206 -12.07664,4.14251l0,44.75864l-8.90884,0l0,-45.86006c5.12697,-3.73313 9.84456,-6.16991 14.15276,-7.31032c4.06455,-1.06243 7.65148,-1.58877 10.74131,-1.58877c2.11512,0 4.10352,0.20469 5.97496,0.61406c3.49921,0.80901 6.34535,2.31006 8.53845,4.51291c2.44651,2.43677 3.6649,5.3609 3.6649,8.78212l0,40.85006z" id="svg_10"/>
    <path fill="url(#svg_9)" d="m86.51851,234.23456c-4.58366,0.0213 -8.96094,0.41222 -12.8125,1.09375c-11.34622,2.00451 -13.40625,6.2001 -13.40625,13.9375l0,10.21875l26.8125,0l0,3.40625l-26.8125,0l-10.0625,0c-7.79246,0 -14.61576,4.68372 -16.75,13.59375c-2.46182,10.21297 -2.57102,16.58603 0,27.25c1.90592,7.93785 6.45754,13.59375 14.25,13.59375l9.21875,0l0,-12.25c0,-8.8499 7.65714,-16.65624 16.75,-16.65625l26.78125,0c7.45495,0 13.40625,-6.13816 13.40625,-13.625l0,-25.53125c0,-7.26634 -6.12998,-12.72477 -13.40625,-13.9375c-4.60599,-0.76672 -9.3851,-1.11505 -13.96875,-1.09375zm-14.5,8.21875c2.76954,0 5.03125,2.29865 5.03125,5.125c-0.00001,2.81634 -2.26171,5.09375 -5.03125,5.09375c-2.77948,0 -5.03125,-2.27741 -5.03125,-5.09375c-0.00001,-2.82635 2.25177,-5.125 5.03125,-5.125z" id="svg_8"/>
    <path fill="url(#svg_7)" d="m117.23726,262.89081l0,11.90625c0,9.23076 -7.8259,17 -16.75,17l-26.78125,0c-7.33584,0 -13.40625,6.27849 -13.40625,13.625l0,25.53125c0,7.26634 6.31858,11.54032 13.40625,13.625c8.48733,2.49561 16.62623,2.94663 26.78125,0c6.75015,-1.95439 13.40625,-5.88761 13.40625,-13.625l0,-10.21875l-26.78125,0l0,-3.40625l26.78125,0l13.40625,0c7.79246,0 10.69625,-5.43541 13.40624,-13.59375c2.79933,-8.39888 2.68022,-16.47577 0,-27.25c-1.92578,-7.75744 -5.60387,-13.59375 -13.40624,-13.59375l-10.0625,0zm-15.0625,64.65625c2.77947,0.00001 5.03125,2.27742 5.03125,5.09375c-0.00001,2.82635 -2.25178,5.125 -5.03125,5.125c-2.76955,0 -5.03125,-2.29865 -5.03125,-5.125c0,-2.81633 2.26169,-5.09375 5.03125,-5.09375z" id="svg_6"/>
    <path stroke-width="1px" fill="#646464" d="m489.56275,254.74597l1.56195,0l0,-9.79624l3.70013,0l0,-1.16766l-8.96221,0l0,1.16766l3.70013,0l0,9.79624m6.64702,0l1.33447,0l0,-8.94703l2.89641,8.94591l1.48569,0l3.01816,-8.91558l0,8.9167l1.45579,0l0,-10.9639l-1.92589,0l-3.29831,9.39286l-2.81297,-9.39286l-2.15335,0l0,10.9639" id="svg_5"/>
    <path stroke-miterlimit="4" stroke-width="20" fill-rule="nonzero" fill="url(#svg_4)" opacity="0.44382" d="m123.34746,361.93444a35.93098,6.96731 0 1 1 -71.86196,0a35.93098,6.96731 0 1 1 71.86196,0z" id="svg_3"/>
   </g>
  </g>
  <path stroke="#000" id="svg_49" d="m506.41498,287l39,0l0,10l-39,0l0,-10z" opacity="undefined" fill="#000000"/>
  <g id="svg_52">
   <g stroke="null">
    <polygon stroke="null" points="616.9482421875,233.16912841796875 593.9945068359375,267.5876159667969 593.9945068359375,289.4063720703125 579.9254760742188,289.4063720703125 579.9254760742188,267.5876159667969 558,233.16912841796875 573.8125,233.16912841796875 587.7545166015625,255.33062744140625 601.8107299804688,233.16912841796875 616.9482421875,233.16912841796875 616.9482421875,233.16912841796875 " id="svg_48"/>
    <path stroke="null" d="m640.5735,277.03188l-25.46525,0l-5.17925,12.506l-11.2765,0l23.845,-56.23725l11.53425,0l22.8775,56.23725l-12.05,0l-4.286,-12.506l0.00025,0zm-4.23,-11.22775l-7.8065,-20.6375l-8.70925,20.6375l16.51575,0z" fill="#cb171e" id="svg_47"/>
    <polygon stroke="null" points="579.9252319335938,295.71337890625 579.9252319335938,350.83087158203125 591.7509765625,350.83087158203125 591.7509765625,312.8113708496094 604.1272583007812,338.36639404296875 613.4357299804688,338.36639404296875 626.2347412109375,311.91314697265625 626.2347412109375,350.81964111328125 637.5794677734375,350.81964111328125 637.5794677734375,295.71337890625 622.0894775390625,295.71337890625 608.34521484375,320.639892578125 595.2552490234375,295.71337890625 579.9252319335938,295.71337890625 579.9252319335938,295.71337890625 " id="svg_46"/>
    <polygon stroke="null" points="686,338.85284423828125 656.9094848632812,338.85284423828125 656.9094848632812,295.70037841796875 644.8604736328125,295.70037841796875 644.8604736328125,350.58087158203125 686,350.58087158203125 686,338.8533935546875 686,338.85284423828125 " id="svg_45"/>
   </g>
   <path stroke="null" fill="#0C479C" d="m683.98449,238.01898c-0.21856,-0.11564 -0.44159,-0.21418 -0.66522,-0.30207l0.16006,-0.01289c0,0 -1.42684,-0.6318 -1.55133,-5.2168c-0.12354,-4.58534 1.35983,-5.36766 1.35983,-5.36766l-0.21306,0.00936c1.12073,-0.57476 2.08467,-1.48346 2.72077,-2.68185c1.65769,-3.11786 0.47149,-6.99004 -2.64697,-8.64773c-3.11949,-1.65606 -6.9909,-0.47304 -8.64764,2.64757c-0.68103,1.28001 -0.87442,2.68675 -0.65955,4.01496l-0.07311,-0.1122c0,0 0.3757,1.6637 -3.52517,4.08515c-3.90018,2.42274 -5.65968,1.21644 -5.65968,1.21644l0.11186,0.16538c-0.11151,-0.06899 -0.21856,-0.13952 -0.33515,-0.20043c-3.11915,-1.6576 -6.99158,-0.47329 -8.64858,2.64646c-1.65648,3.11941 -0.47158,6.9903 2.64723,8.64867c2.32514,1.23405 5.06662,0.89006 6.99854,-0.65766l-0.04184,0.08127c0,0 1.42022,-1.16833 5.51217,1.02863c3.23041,1.73355 3.71006,3.43273 3.77149,4.07081c-0.08445,2.36862 1.1502,4.69239 3.38402,5.87927c3.11872,1.65803 6.99107,0.47235 8.64773,-2.64646c1.65743,-3.11881 0.47312,-6.99176 -2.64637,-8.64824zm-7.21101,0.84066c-0.51702,0.18291 -1.99343,0.38549 -5.10228,-1.2819c-3.36667,-1.80761 -3.86651,-3.31752 -3.93953,-3.7708c0.04785,-0.54993 0.01735,-1.09891 -0.07655,-1.63406l0.02053,0.03084c0,0 -0.27398,-1.46877 3.57827,-3.86118c3.44794,-2.13992 5.01525,-1.71439 5.30692,-1.60253c0.18772,0.12758 0.38231,0.24631 0.58635,0.35491c0.38815,0.20602 0.78816,0.36796 1.19316,0.4873c0.47424,0.45164 1.34694,1.73355 1.43758,5.10434c0.09261,3.39656 -0.90492,4.70622 -1.44892,5.1692c-0.56067,0.25396 -1.08474,0.59254 -1.55554,1.00389z"/>
   <g stroke="null">
    <path stroke="null" fill="#FFFFFF" d="m676.35156,217.83436c-1.86079,2.03562 -1.90022,5.02968 -0.10705,6.72388c-0.88628,-0.85354 -0.86712,-2.62962 0.02835,-4.32889c0.11529,-0.15241 0.44881,-0.51213 0.93628,-0.34838c0.04888,0.01667 0.0817,0.02105 0.10052,0.0183c0.11031,0.02388 0.22346,0.03772 0.34021,0.03273c0.74074,-0.03376 1.31343,-0.66015 1.27993,-1.40098c-0.01503,-0.33231 -0.15292,-0.62648 -0.36599,-0.85226c1.71886,-1.12606 3.6915,-1.25519 4.49968,-0.51685l0.03084,0.00215c-1.84627,-1.6863 -4.86455,-1.38509 -6.74278,0.67029z"/>
   </g>
   <g stroke="null">
    <path stroke="null" fill="#FFFFFF" d="m657.58597,236.64764c-0.01581,-0.01632 -0.03187,-0.03488 -0.04828,-0.05138c0.0104,0.01074 0.02019,0.02397 0.03248,0.03497l0.01581,0.01641z"/>
    <path stroke="null" fill="#FFFFFF" d="m657.64517,229.87247c-1.86113,2.03562 -1.89988,5.02942 -0.10748,6.72388c-0.88602,-0.85354 -0.86703,-2.62962 0.02844,-4.32889c0.11555,-0.15275 0.44941,-0.51213 0.93697,-0.34838c0.04854,0.01675 0.08127,0.02079 0.10026,0.01821c0.11023,0.02363 0.22363,0.0378 0.34013,0.03239c0.74083,-0.03368 1.31343,-0.66015 1.28001,-1.40064c-0.01538,-0.33222 -0.1531,-0.62682 -0.3653,-0.85226c1.71783,-1.12606 3.69073,-1.25579 4.49891,-0.51728l0.0305,0.00258c-1.84566,-1.68655 -4.86464,-1.38543 -6.74244,0.67038z"/>
   </g>
   <g stroke="null">
    <path stroke="null" fill="#FFFFFF" d="m677.38853,246.83982c-0.01607,-0.01641 -0.03213,-0.03471 -0.04845,-0.05103c0.01005,0.01074 0.02036,0.02397 0.03248,0.03454l0.01598,0.0165z"/>
    <path stroke="null" fill="#FFFFFF" d="m677.44772,240.06387c-1.86139,2.03648 -1.90022,5.03045 -0.10773,6.72491c-0.88636,-0.85354 -0.86686,-2.62988 0.02844,-4.32897c0.11547,-0.15301 0.44907,-0.51204 0.93697,-0.3482c0.0488,0.01624 0.08084,0.02079 0.10017,0.01821c0.11014,0.0238 0.2238,0.0378 0.34047,0.03273c0.74031,-0.03402 1.31275,-0.66084 1.27933,-1.4021c-0.01512,-0.33197 -0.15301,-0.62613 -0.3653,-0.852c1.71843,-1.12572 3.69073,-1.25519 4.49925,-0.51685l0.0305,0.00249c-1.84566,-1.68655 -4.86481,-1.38517 -6.74209,0.66978z"/>
   </g>
  </g>
  <text xml:space="preserve" text-anchor="start" font-family="'Cabin'" font-size="34" stroke-width="0" id="svg_53" y="245.49821" x="693.85885" stroke="null" fill="#0C479C">LD</text>
 </g>
</svg>